<?xml version="1.0" encoding="UTF-8" standalone="no" ?>
<!DOCTYPE svg PUBLIC "-//W3C//DTD SVG 1.1//EN" "http://www.w3.org/Graphics/SVG/1.1/DTD/svg11.dtd">
<svg xmlns="http://www.w3.org/2000/svg" xmlns:xlink="http://www.w3.org/1999/xlink" version="1.1" width="1080" height="1080" viewBox="0 0 1080 1080" xml:space="preserve">
<desc>Created with Fabric.js 5.2.4</desc>
<defs>
</defs>
<rect x="0" y="0" width="100%" height="100%" fill="transparent"></rect>
<g transform="matrix(1 0 0 1 540 540)" id="6cc151e7-1740-4cb5-a59e-df76bc11cb4f"  >
<rect style="stroke: none; stroke-width: 1; stroke-dasharray: none; stroke-linecap: butt; stroke-dashoffset: 0; stroke-linejoin: miter; stroke-miterlimit: 4; fill: rgb(255,255,255); fill-rule: nonzero; opacity: 1; visibility: hidden;" vector-effect="non-scaling-stroke"  x="-540" y="-540" rx="0" ry="0" width="1080" height="1080" />
</g>
<g transform="matrix(1 0 0 1 540 540)" id="d5fddaa6-d89f-4041-a849-546e3f82fab8"  >
</g>
<g transform="matrix(1 0 0 1 555.47 747.46)"  >
<path style="stroke: none; stroke-width: 1; stroke-dasharray: none; stroke-linecap: butt; stroke-dashoffset: 0; stroke-linejoin: miter; stroke-miterlimit: 4; fill: rgb(96,96,96); fill-rule: nonzero; opacity: 1;" vector-effect="non-scaling-stroke"  transform=" translate(-749.49, -618.26)" d="M 850.7 572.4 C 850.2 572.4 849 575.4 848.1 579 C 847.2 582.6 845.9 585.9 845.4 586.3 C 844.9 586.6999999999999 843.9 581.6999999999999 843.4 575.4 C 842.1999999999999 559.8 838.9 530.3 837.8 525.4 C 836.9 521.4 836.9 521.4 836.0999999999999 524.6999999999999 C 835.3999999999999 527.3 834.8999999999999 526.3 833.4999999999999 519.4 C 831.4999999999999 509.29999999999995 828.3999999999999 502.59999999999997 826.5999999999999 504.4 C 825.8 505.2 826.0999999999999 508.5 827.3 513.3 C 829.5999999999999 522.0999999999999 832.9 549.5 834 569.6999999999999 L 834.8 583.5999999999999 L 832.3 576.9999999999999 C 830.9 573.3999999999999 828.9 568.5999999999999 827.8 566.4999999999999 C 825.9 562.7999999999998 825.6999999999999 563.2999999999998 825.1999999999999 578.3999999999999 C 824.6999999999999 592.0999999999999 823.9999999999999 596.0999999999999 819.8 608.2999999999998 C 815.1999999999999 621.8999999999999 809.0999999999999 635.0999999999998 802.5999999999999 645.4999999999999 L 799.4999999999999 650.4999999999999 L 799.5999999999999 640.1999999999999 C 799.6999999999999 624.8 797.9999999999999 622.4 794.9999999999999 633.9 C 791.1999999999999 648.8 779.0999999999999 672.8 761.8999999999999 699.9 L 756.9999999999999 707.6999999999999 L 754.0999999999999 698.9999999999999 C 749.8999999999999 686.3999999999999 742.8 676.2999999999998 729.6999999999999 664.3999999999999 C 716.6999999999999 652.5999999999999 709.1999999999999 642.3999999999999 702.9 627.8999999999999 C 699.4 619.8999999999999 698.4 618.4999999999999 697.6 620.5999999999999 C 696.3000000000001 623.8999999999999 696.2 638.6999999999999 697.5 646.3999999999999 L 698.5 652.3999999999999 L 694.5 647.7999999999998 C 688.8 641.0999999999998 681.7 626.2999999999998 678.5 613.9999999999999 C 676.3 605.6999999999999 675.5 597.9999999999999 675 579.0999999999999 C 674.3 553.8 673.3 551.3 670.5 567.9999999999999 C 668.3 580.8999999999999 666.8 577.6999999999999 666.8 560.2999999999998 C 666.8 544.1999999999998 668.0999999999999 535.2999999999998 673 518.9999999999999 C 676.2 508.39999999999986 676.3 507.1999999999999 674.4 505.2999999999999 C 672.5 503.3999999999999 672.1999999999999 503.4999999999999 670.6 506.3999999999999 C 669.7 508.0999999999999 667.9 513.6999999999999 666.6 518.8 C 665.3000000000001 523.9 664.2 526.5999999999999 664.1 524.8 L 663.9 521.5 L 662.6999999999999 524.5 C 661.9999999999999 526.2 660.1999999999999 540.9 658.5999999999999 557.2 C 656.9999999999999 573.5 655.3 586.6 654.8 586.3000000000001 C 654.3 586.0000000000001 652.9 582.0000000000001 651.5999999999999 577.5000000000001 C 649.5999999999999 570.3000000000001 649.0999999999999 569.6000000000001 647.8 571.8000000000001 C 646.9 573.4000000000001 646.3 580.9000000000001 646.3 590.9000000000001 L 646.3 607.4000000000001 L 652.4 620.0000000000001 C 664.9 645.8000000000001 682.3 663.1000000000001 713.6999999999999 680.9000000000001 C 731.5999999999999 691.0000000000001 745.1999999999999 708.1000000000001 748.9999999999999 725.3000000000001 L 750.5999999999999 732.5000000000001 L 758.4999999999999 728.2000000000002 C 762.8999999999999 725.8000000000002 771.0999999999999 719.5000000000001 776.7999999999998 714.2000000000002 L 776.7999999999998 714.2000000000002 C 796.6999999999998 695.6000000000001 815.1999999999998 661.9000000000002 825.0999999999998 626.1000000000001 L 827.2999999999998 618.3000000000002 L 829.7999999999998 621.5000000000002 C 833.3999999999999 626.2000000000003 835.9999999999999 631.9000000000002 837.6999999999998 639.3000000000002 C 840.2999999999998 650.3000000000002 840.2999999999998 650.2000000000002 842.2999999999998 646.4000000000002 C 845.7999999999998 639.8000000000002 850.6999999999998 620.4000000000002 852.0999999999998 607.4000000000002 C 853.3 594.7 852.5 572.4 850.7 572.4 z" stroke-linecap="round" />
</g>
<g transform="matrix(1 0 0 1 555.99 582.6)"  >
<path style="stroke: none; stroke-width: 1; stroke-dasharray: none; stroke-linecap: butt; stroke-dashoffset: 0; stroke-linejoin: miter; stroke-miterlimit: 4; fill: rgb(96,96,96); fill-rule: nonzero; opacity: 1;" vector-effect="non-scaling-stroke"  transform=" translate(-750, -453.4)" d="M 877.1 345.4 C 872.4 347.79999999999995 864 353.4 858.6 357.79999999999995 C 841.9 371.29999999999995 821.5 381.69999999999993 811.7 381.79999999999995 C 807.3000000000001 381.79999999999995 803 385.09999999999997 803 388.49999999999994 C 803 390.3999999999999 801 389.79999999999995 791.6 385.09999999999997 C 779.1 378.79999999999995 760.8000000000001 373.9 750 373.9 C 739.2 373.9 720.9 378.79999999999995 708.6 385 L 697.4 390.6 L 697.6 386.6 C 697.8000000000001 382.6 697.8000000000001 382.6 688.8000000000001 381.70000000000005 C 675.2 380.30000000000007 659.0000000000001 372.00000000000006 640.2 356.80000000000007 C 635.5 353.00000000000006 627.7 347.9000000000001 623 345.50000000000006 C 605 336.40000000000003 571.9 326.6000000000001 554.3 325.30000000000007 L 544.5 324.6000000000001 L 545.4 327.80000000000007 C 545.9 329.50000000000006 548.6 335.80000000000007 551.4 341.70000000000005 C 555 349.30000000000007 557.9 353.6 561.5 356.30000000000007 C 577.9 368.70000000000005 586 379.00000000000006 591.3 393.6000000000001 C 595.5 405.30000000000007 597.0999999999999 406.00000000000006 624.8 407.30000000000007 C 657.0999999999999 408.9000000000001 668.3 411.9000000000001 675 420.70000000000005 L 678.5 425.20000000000005 L 675.8 432.20000000000005 C 674.3 436.30000000000007 673.3 441.50000000000006 673.5 444.6 L 673.9 450 L 683.9 450.8 C 708.3 452.8 720.1 469 719.8 499.90000000000003 C 719.5999999999999 516.1 717 527.4000000000001 710.1999999999999 541.4000000000001 C 703.5999999999999 555.0000000000001 702.9 561.9000000000001 707.5999999999999 568.8000000000001 C 710.8999999999999 573.6 715.8 577.2 722.8999999999999 580.0000000000001 C 729.2999999999998 582.5000000000001 729.4999999999999 582.1000000000001 724.3999999999999 576.5000000000001 C 720.1999999999998 571.9000000000001 719.5999999999999 570.3000000000001 719.5999999999999 564.5000000000001 C 719.5999999999999 558.9000000000001 720.1999999999999 557.2000000000002 723.3 554.0000000000001 C 728.3 549.0000000000001 734.9 547.4000000000001 750 547.4000000000001 C 765.1 547.4000000000001 771.7 549.0000000000001 776.7 554.0000000000001 C 779.8000000000001 557.1000000000001 780.4000000000001 558.9000000000001 780.4000000000001 564.5000000000001 C 780.4000000000001 570.4000000000001 779.8000000000001 571.9000000000001 775.4000000000001 576.7000000000002 L 770.4000000000001 582.2000000000002 L 774.4000000000001 581.2000000000002 C 781.1000000000001 579.5000000000001 786.4000000000001 576.6000000000001 791.1000000000001 571.7000000000002 C 797.7000000000002 564.9000000000002 797.3000000000002 557.2000000000002 789.3000000000002 539.8000000000002 C 782.2000000000002 524.4000000000002 780.4000000000002 516.3000000000002 780.2000000000002 499.50000000000017 C 779.9000000000002 469.00000000000017 791.9000000000002 452.8000000000002 816.1000000000001 450.8000000000002 L 826.1000000000001 450.00000000000017 L 826.5000000000001 444.6000000000002 C 826.7000000000002 441.4000000000002 825.8000000000001 436.2000000000002 824.2000000000002 432.2000000000002 L 821.5000000000001 425.2000000000002 L 825.0000000000001 420.7000000000002 C 831.7000000000002 411.9000000000002 842.9000000000001 408.9000000000002 875.2000000000002 407.30000000000024 C 902.9000000000002 405.90000000000026 904.6000000000001 405.30000000000024 908.7000000000002 393.60000000000025 C 914.0000000000001 378.90000000000026 922.1000000000001 368.7000000000003 938.5000000000001 356.30000000000024 C 942.0000000000001 353.60000000000025 945.0000000000001 349.30000000000024 948.6000000000001 341.7000000000002 C 951.4000000000001 335.80000000000024 954.1000000000001 329.5000000000002 954.6000000000001 327.80000000000024 L 955.5000000000001 324.60000000000025 L 945.7000000000002 325.30000000000024 C 928.2 326.5 895.1 336.3 877.1 345.4 z M 671.5 401.7 C 666.8 403.8 663 404.2 646.8 404.09999999999997 C 636.1999999999999 403.99999999999994 624.9 403.49999999999994 621.5 402.9 L 621.5 402.9 C 613.3 401.5 607.9 398.5 601.1 391.7 C 595.9 386.5 589.5 376.7 592.1 378 C 605.8000000000001 384.8 612.6 387.3 619.8000000000001 388.2 C 624.5000000000001 388.8 628.3000000000001 388.7 628.3000000000001 388.09999999999997 C 628.3000000000001 387.49999999999994 627.5000000000001 386.99999999999994 626.5000000000001 386.99999999999994 C 623.4000000000001 386.99999999999994 606.5000000000001 377.99999999999994 603.3000000000001 374.59999999999997 L 600.2 371.29999999999995 L 610.3000000000001 374.49999999999994 C 615.9000000000001 376.29999999999995 622.9000000000001 377.69999999999993 626.0000000000001 377.69999999999993 L 631.6000000000001 377.5999999999999 L 626.3000000000002 372.7999999999999 C 614.8000000000002 362.4999999999999 599.6000000000001 353.7999999999999 586.9000000000002 350.4999999999999 C 579.2000000000002 348.39999999999986 579.3000000000002 348.1999999999999 584.6000000000003 363.7999999999999 C 586.8000000000003 370.1999999999999 588.4000000000002 375.6999999999999 588.1000000000003 375.9999999999999 C 587.8000000000003 376.2999999999999 585.8000000000003 373.39999999999986 583.6000000000003 369.4999999999999 C 581.3000000000003 365.2999999999999 575.0000000000002 358.2999999999999 568.3000000000003 352.1999999999999 C 559.5000000000003 344.1999999999999 556.5000000000003 340.59999999999985 554.9000000000003 335.89999999999986 L 552.8000000000003 329.79999999999984 L 555.8000000000003 330.59999999999985 C 557.5000000000003 330.99999999999983 567.9000000000003 333.1999999999999 579.0000000000003 335.39999999999986 C 607.2000000000004 340.9999999999999 616.3000000000003 345.09999999999985 630.3000000000003 358.29999999999984 C 642.9000000000003 370.09999999999985 655.1000000000003 376.6999999999998 674.1000000000003 381.89999999999986 C 680.1000000000003 383.4999999999999 685.0000000000002 385.59999999999985 685.0000000000002 386.4999999999999 C 685.1 389.9 676.8 399.3 671.5 401.7 z M 777 434.9 C 768.2 440.09999999999997 764.5 444.5 763.2 451.5 L 762.3000000000001 456.6 L 760.5000000000001 450.5 C 758.8000000000001 444.5 758.7000000000002 444.4 754.7000000000002 445.6 C 752.5000000000001 446.3 748.4000000000002 446.40000000000003 745.7000000000002 446 C 742.0000000000001 445.4 740.7000000000002 445.7 740.7000000000002 447 C 740.7000000000002 448 739.8000000000002 450.6 738.8000000000002 452.7 L 737.0000000000002 456.7 L 736.9000000000002 452.59999999999997 L 736.9000000000002 452.59999999999997 C 736.7000000000002 446.49999999999994 731.8000000000002 440.2 723.1000000000003 435.2 C 718.9000000000002 432.7 714.3000000000003 428.8 712.8000000000003 426.5 C 710.0000000000003 422 709.3000000000003 410.6 711.5000000000003 407.1 C 712.6000000000004 405.40000000000003 713.2000000000004 405.40000000000003 716.4000000000003 407.5 C 725.4000000000003 413.3 732.1000000000004 415.5 743.1000000000004 416.1 C 756.1000000000004 416.8 765.5000000000003 415 778.1000000000004 409.3 C 788.6000000000004 404.6 789.5000000000003 405.1 789.5000000000003 415.6 C 789.7 424.3 786.4 429.5 777 434.9 z M 945.1 335.9 C 943.5 340.59999999999997 940.5 344.2 931.7 352.2 C 925 358.3 918.8000000000001 365.3 916.4000000000001 369.5 C 914.2 373.4 912.2 376.3 911.9000000000001 376 C 911.6000000000001 375.7 913.2 370.6 915.4000000000001 364.6 C 920.1000000000001 351.8 920.2 351.3 916.8000000000001 351.3 C 908.5000000000001 351.3 885.8000000000001 363.5 873.7 374.40000000000003 L 868.4000000000001 379.20000000000005 L 876.3000000000001 378.6 C 880.7 378.3 887.7 376.8 891.9000000000001 375.40000000000003 L 899.6000000000001 372.8 L 896.6000000000001 376 C 894.9000000000001 377.8 888.2000000000002 381.9 881.7000000000002 385.1 L 869.8000000000002 391 L 876.4000000000002 390.2 C 887.1000000000003 388.9 896.0000000000002 385.9 902.3000000000002 381.7 C 905.5000000000002 379.5 908.4000000000002 378 908.7000000000002 378.3 C 909.7000000000002 379.3 899.6000000000001 391.90000000000003 895.0000000000001 395.40000000000003 C 885.9000000000001 402.3 882.1000000000001 403.20000000000005 857.3000000000001 403.70000000000005 C 835.4000000000001 404.20000000000005 833.8000000000001 404.1 828.4000000000001 401.30000000000007 L 828.4000000000001 401.30000000000007 C 822.9000000000001 398.50000000000006 815.0000000000001 389.6000000000001 815.0000000000001 386.20000000000005 C 815.0000000000001 385.30000000000007 819.9000000000001 383.30000000000007 825.9000000000001 381.6 C 844.8000000000001 376.5 857.1000000000001 369.8 869.7 358 C 883.7 344.8 892.8000000000001 340.8 921 335.1 C 932.1 332.90000000000003 942.6 330.70000000000005 944.2 330.3 L 947.2 329.5 L 945.1 335.9 z" stroke-linecap="round" />
</g>
<g transform="matrix(1 0 0 1 549.9 690.65)"  >
<path style="stroke: none; stroke-width: 1; stroke-dasharray: none; stroke-linecap: butt; stroke-dashoffset: 0; stroke-linejoin: miter; stroke-miterlimit: 4; fill: rgb(96,96,96); fill-rule: nonzero; opacity: 1;" vector-effect="non-scaling-stroke"  transform=" translate(-743.92, -561.44)" d="M 737.6 558.2 C 741.9 556.2 748.8000000000001 554.5 754.4 553.9000000000001 L 763.9 553.0000000000001 L 756.1999999999999 551.9000000000001 C 736.4999999999999 549.1000000000001 721.8 556.2 724.1999999999999 567.3000000000001 L 725.0999999999999 571.6 L 727.6999999999999 566.6 C 729.7 562.8 732.1 560.7 737.6 558.2 L 737.6 558.2 z" stroke-linecap="round" />
</g>
<g transform="matrix(1 0 0 1 493.33 610.36)"  >
<path style="stroke: none; stroke-width: 1; stroke-dasharray: none; stroke-linecap: butt; stroke-dashoffset: 0; stroke-linejoin: miter; stroke-miterlimit: 4; fill: rgb(96,96,96); fill-rule: nonzero; opacity: 1;" vector-effect="non-scaling-stroke"  transform=" translate(-687.34, -481.16)" d="M 669.4 453.8 C 668.6999999999999 453.1 667.9 451.40000000000003 667.5 449.90000000000003 C 667.1 448.40000000000003 667 452.90000000000003 667.3 459.8 C 668.1999999999999 480.3 673.9 495 685.1999999999999 506.3 C 690.6999999999999 511.8 692.4 512.7 696.6999999999999 512.7 C 699.4999999999999 512.7 703.0999999999999 511.6 704.9999999999999 510.20000000000005 L 704.9999999999999 510.20000000000005 C 707.9999999999999 507.90000000000003 708.0999999999999 507.40000000000003 706.5999999999999 502.40000000000003 C 704.5999999999999 495.6 703.1999999999999 494.6 694.8 493.90000000000003 C 686.5999999999999 493.1 679.0999999999999 488.6 675.3 482.1 L 672.6999999999999 477.6 L 676.5999999999999 480.20000000000005 C 682.8999999999999 484.30000000000007 687.0999999999999 486.20000000000005 691.8999999999999 486.90000000000003 C 695.4999999999999 487.50000000000006 695.0999999999999 487.20000000000005 690.2999999999998 485.6 C 686.6999999999998 484.40000000000003 682.4999999999999 481.70000000000005 680.1999999999998 479.1 C 676.2999999999998 474.6 670.6999999999998 461.90000000000003 670.6999999999998 457.40000000000003 C 670.6 456.1 670 454.5 669.4 453.8 z" stroke-linecap="round" />
</g>
<g transform="matrix(1 0 0 1 618.82 610.46)"  >
<path style="stroke: none; stroke-width: 1; stroke-dasharray: none; stroke-linecap: butt; stroke-dashoffset: 0; stroke-linejoin: miter; stroke-miterlimit: 4; fill: rgb(96,96,96); fill-rule: nonzero; opacity: 1;" vector-effect="non-scaling-stroke"  transform=" translate(-812.83, -481.26)" d="M 793.6 502.6 C 792.3000000000001 507.6 792.4 508.20000000000005 795.2 510.40000000000003 C 796.9000000000001 511.70000000000005 800.6 512.8000000000001 803.3000000000001 512.8000000000001 C 807.6 512.8000000000001 809.3000000000001 511.9000000000001 814.8000000000001 506.4000000000001 L 814.8000000000001 506.4000000000001 C 826.1 495.1000000000001 831.8000000000001 480.4000000000001 832.7 459.9000000000001 C 833 453.0000000000001 832.9000000000001 448.5000000000001 832.5 450.0000000000001 C 832.1 451.5000000000001 831.2 453.2000000000001 830.6 453.9000000000001 C 829.9 454.6000000000001 829.4 456.2000000000001 829.4 457.5000000000001 C 829.4 461.7000000000001 824 474.4000000000001 820.4 478.7000000000001 C 818.5 481.0000000000001 815.1 483.6000000000001 812.9 484.6000000000001 C 810.6999999999999 485.6000000000001 809.6999999999999 486.4000000000001 810.6999999999999 486.4000000000001 C 811.6999999999999 486.4000000000001 815.8 484.6000000000001 819.8 482.4000000000001 L 827 478.30000000000007 L 824.6 482.50000000000006 C 821.1 488.6000000000001 813.8000000000001 492.90000000000003 805.5 493.90000000000003 C 796.7 494.8 795.4 495.8 793.6 502.6 z" stroke-linecap="round" />
</g>
<g transform="matrix(1 0 0 1 612.39 616.21)"  >
<path style="stroke: none; stroke-width: 1; stroke-dasharray: none; stroke-linecap: butt; stroke-dashoffset: 0; stroke-linejoin: miter; stroke-miterlimit: 4; fill: rgb(96,96,96); fill-rule: nonzero; opacity: 1;" vector-effect="non-scaling-stroke"  transform=" translate(-806.41, -487)" d="M 805.4 486.7 C 804.3 487.09999999999997 804.6999999999999 487.4 806.1999999999999 487.5 C 807.5999999999999 487.6 808.4 487.2 807.9 486.8 L 807.9 486.8 C 807.5 486.4 806.3 486.4 805.4 486.7 z" stroke-linecap="round" />
</g>
<g transform="matrix(1 0 0 1 494.41 597.9)"  >
<path style="stroke: none; stroke-width: 1; stroke-dasharray: none; stroke-linecap: butt; stroke-dashoffset: 0; stroke-linejoin: miter; stroke-miterlimit: 4; fill: rgb(96,96,96); fill-rule: nonzero; opacity: 1;" vector-effect="non-scaling-stroke"  transform=" translate(-688.43, -468.7)" d="M 683.6 466.7 L 678.1 460.5 L 681.3000000000001 466.3 C 684.7 472.5 691.5000000000001 477.1 697.1 476.90000000000003 C 699.8000000000001 476.8 699.3000000000001 476.40000000000003 694.8000000000001 474.8 L 694.8000000000001 474.8 C 691.3 473.6 687 470.5 683.6 466.7 z" stroke-linecap="round" />
</g>
<g transform="matrix(1 0 0 1 616.99 597.89)"  >
<path style="stroke: none; stroke-width: 1; stroke-dasharray: none; stroke-linecap: butt; stroke-dashoffset: 0; stroke-linejoin: miter; stroke-miterlimit: 4; fill: rgb(96,96,96); fill-rule: nonzero; opacity: 1;" vector-effect="non-scaling-stroke"  transform=" translate(-811, -468.7)" d="M 818.9 466.3 C 822.5 459.3 822.1 458.5 817.8 464.3 C 813.6999999999999 469.8 807.4 474.40000000000003 804 474.40000000000003 C 802.8 474.40000000000003 801.3 475.1 800.8 475.90000000000003 C 799.4 478.20000000000005 808.5 476.40000000000003 812.8 473.6 C 814.8 472.4 817.5 469.1 818.9 466.3 z" stroke-linecap="round" />
</g>
<g transform="matrix(1 0 0 1 502.24 590.95)"  >
<path style="stroke: none; stroke-width: 1; stroke-dasharray: none; stroke-linecap: butt; stroke-dashoffset: 0; stroke-linejoin: miter; stroke-miterlimit: 4; fill: rgb(96,96,96); fill-rule: nonzero; opacity: 1;" vector-effect="non-scaling-stroke"  transform=" translate(-696.26, -461.75)" d="M 701 464.1 C 701 463.1 694.1 458.5 692.5 458.5 C 690.3 458.5 692.1 462.7 694.7 463.8 C 698.5 465.3 701 465.4 701 464.1 z" stroke-linecap="round" />
</g>
<g transform="matrix(1 0 0 1 609.15 591)"  >
<path style="stroke: none; stroke-width: 1; stroke-dasharray: none; stroke-linecap: butt; stroke-dashoffset: 0; stroke-linejoin: miter; stroke-miterlimit: 4; fill: rgb(96,96,96); fill-rule: nonzero; opacity: 1;" vector-effect="non-scaling-stroke"  transform=" translate(-803.17, -461.8)" d="M 806.3 458.5 C 804.0999999999999 458.5 796.3 465 798.4 465.1 C 799.1999999999999 465.1 801.6999999999999 464.5 804 463.70000000000005 L 804 463.70000000000005 C 808.3 462.2 809.9 458.5 806.3 458.5 z" stroke-linecap="round" />
</g>
<g transform="matrix(1 0 0 1 400.83 387)"  >
<path style="stroke: none; stroke-width: 1; stroke-dasharray: none; stroke-linecap: butt; stroke-dashoffset: 0; stroke-linejoin: miter; stroke-miterlimit: 4; fill: rgb(96,96,96); fill-rule: nonzero; opacity: 1;" vector-effect="non-scaling-stroke"  transform=" translate(-594.85, -257.8)" d="M 643.9 308.9 C 663.3 314.4 677.1999999999999 323.9 685.8 337.4 C 690.6999999999999 345 694.4 355.29999999999995 694.4 361 L 694.4 364.9 L 701.4 364.09999999999997 C 705.1999999999999 363.59999999999997 710.6999999999999 363.29999999999995 713.5 363.29999999999995 L 713.5 363.29999999999995 L 718.6 363.29999999999995 L 717.7 358.29999999999995 C 715.2 344.49999999999994 705.9000000000001 327.19999999999993 689.4000000000001 316.19999999999993 C 684.5000000000001 312.8999999999999 680.0000000000001 310.19999999999993 679.5000000000001 310.19999999999993 C 679.0000000000001 310.19999999999993 679.9000000000001 311.99999999999994 681.4000000000001 314.19999999999993 C 685.7 320.29999999999995 682.5000000000001 318.8999999999999 675.9000000000001 311.8999999999999 C 667.6000000000001 302.99999999999994 656.0000000000001 290.99999999999994 653.9000000000001 284.0999999999999 C 648.8000000000001 266.9999999999999 653.7 246.5999999999999 667.2 228.89999999999992 L 671.3000000000001 223.5999999999999 L 665.7 227.99999999999991 C 652.7 238.1999999999999 643.7 253.0999999999999 639.4000000000001 271.3999999999999 C 638.1000000000001 276.7999999999999 636.7 281.19999999999993 636.2 281.19999999999993 C 635.7 281.19999999999993 630.8000000000001 277.3999999999999 625.3000000000001 272.5999999999999 C 613.3000000000001 262.2999999999999 601.1 248.49999999999991 592.3000000000001 234.89999999999992 C 588.7 229.39999999999992 585.5000000000001 224.5999999999999 585.1 224.29999999999993 C 583.9 223.09999999999994 587.4 231.49999999999991 589 233.49999999999991 C 590.4 235.29999999999993 590.3 235.29999999999993 588.2 233.5999999999999 C 584.6 230.6999999999999 579.3000000000001 221.0999999999999 576.4000000000001 211.89999999999992 C 571.7 197.0999999999999 573.2 171.5999999999999 579.5000000000001 156.79999999999993 L 582.1000000000001 150.69999999999993 L 577.9000000000001 154.69999999999993 C 571.4000000000001 160.89999999999992 563.5000000000001 173.49999999999994 561.2 181.39999999999992 C 558.7 190.0999999999999 558.5 203.0999999999999 560.7 212.5999999999999 C 564.7 229.49999999999991 578.8000000000001 253.39999999999992 586.8000000000001 256.7999999999999 C 592.6 259.1999999999999 615.2 273.3999999999999 614.5000000000001 274.0999999999999 C 614.2000000000002 274.3999999999999 611.3000000000001 273.4999999999999 608.1000000000001 272.19999999999993 C 604.9000000000001 270.79999999999995 592.8000000000002 266.5999999999999 581.1000000000001 262.79999999999995 C 548.5000000000001 252.09999999999997 527.7000000000002 241.19999999999996 507.5000000000001 223.89999999999995 L 498.7000000000001 216.39999999999995 L 497.9000000000001 220.49999999999994 C 497.5000000000001 222.69999999999993 497.1000000000001 227.39999999999995 497.1000000000001 230.89999999999995 L 497.1000000000001 237.29999999999995 L 507.6000000000001 245.19999999999996 C 520.2 254.69999999999996 538.2 265.9 551.5000000000001 272.69999999999993 L 561.3000000000001 277.5999999999999 L 579.8000000000001 276.8999999999999 C 597.1 276.2999999999999 597.9000000000001 276.2999999999999 591.1 277.99999999999994 C 569.7 283.09999999999997 535.8000000000001 283.79999999999995 521.6 279.3999999999999 L 515 277.3999999999999 L 518.2 279.99999999999994 C 520 281.3999999999999 522.3000000000001 283.19999999999993 523.5 283.79999999999995 C 527.4 285.99999999999994 524.3 286.19999999999993 518.3 284.19999999999993 C 491.4 275.0999999999999 482.49999999999994 245.69999999999993 493.69999999999993 203.69999999999993 C 496.49999999999994 193.19999999999993 496.5999999999999 192.29999999999993 494.3999999999999 195.19999999999993 C 492.99999999999994 196.99999999999994 488.99999999999994 203.79999999999993 485.3999999999999 210.29999999999993 C 463.2999999999999 250.49999999999994 466.69999999999993 274.79999999999995 496.2999999999999 288.99999999999994 C 517.1999999999999 298.99999999999994 541.8999999999999 302.79999999999995 599.0999999999999 304.8999999999999 C 628 305.9 635.9 306.6 643.9 308.9 z" stroke-linecap="round" />
</g>
<g transform="matrix(1 0 0 1 277.39 279.9)"  >
<path style="stroke: none; stroke-width: 1; stroke-dasharray: none; stroke-linecap: butt; stroke-dashoffset: 0; stroke-linejoin: miter; stroke-miterlimit: 4; fill: rgb(96,96,96); fill-rule: nonzero; opacity: 1;" vector-effect="non-scaling-stroke"  transform=" translate(-471.41, -150.7)" d="M 474.7 212.3 C 475.3 212.3 477.59999999999997 208.70000000000002 479.8 204.4 L 483.8 196.5 L 479.2 186.9 L 474.59999999999997 177.3 L 474.59999999999997 182.5 C 474.59999999999997 186.7 474.29999999999995 187.4 472.9 186 C 471.7 184.8 471.29999999999995 177.3 471.29999999999995 157.6 C 471.4 127.8 472.79999999999995 120 481.69999999999993 99.5 C 484.19999999999993 93.8 485.99999999999994 89.1 485.69999999999993 89.1 C 484.29999999999995 89.1 472.69999999999993 107.19999999999999 467.99999999999994 116.69999999999999 C 457.59999999999997 137.39999999999998 454.3999999999999 161.39999999999998 459.3999999999999 180.7 C 461.7 189.4 472.7 212.3 474.7 212.3 z" stroke-linecap="round" />
</g>
<g transform="matrix(1 0 0 1 711.14 387)"  >
<path style="stroke: none; stroke-width: 1; stroke-dasharray: none; stroke-linecap: butt; stroke-dashoffset: 0; stroke-linejoin: miter; stroke-miterlimit: 4; fill: rgb(96,96,96); fill-rule: nonzero; opacity: 1;" vector-effect="non-scaling-stroke"  transform=" translate(-905.15, -257.8)" d="M 1005.6 195.2 C 1003.4 192.29999999999998 1003.4 193.1 1006.3000000000001 203.7 C 1017.5000000000001 245.7 1008.6 275.1 981.7 284.2 C 975.7 286.2 972.6 286 976.5 283.8 C 977.7 283.2 980 281.40000000000003 981.8 280 L 985 277.4 L 978.4 279.4 C 964.1999999999999 283.79999999999995 930.3 283.09999999999997 908.9 278 C 902.1 276.4 902.8 276.3 920.1999999999999 276.9 L 938.6999999999999 277.59999999999997 L 948.4999999999999 272.7 C 961.7999999999998 266 979.7999999999998 254.7 992.3999999999999 245.2 L 1002.8999999999999 237.29999999999998 L 1002.8999999999999 230.89999999999998 C 1002.8999999999999 227.39999999999998 1002.4999999999999 222.7 1002.0999999999999 220.49999999999997 L 1001.3 216.39999999999998 L 992.5 223.89999999999998 C 972.2 241.09999999999997 951.5 252.09999999999997 918.9 262.79999999999995 C 907.3 266.59999999999997 895.1 270.9 891.9 272.19999999999993 C 888.6999999999999 273.5999999999999 885.8 274.3999999999999 885.5 274.0999999999999 C 884.8 273.3999999999999 907.4 259.19999999999993 913.2 256.7999999999999 C 921.2 253.3999999999999 935.4000000000001 229.4999999999999 939.3000000000001 212.5999999999999 C 941.5000000000001 203.1999999999999 941.3000000000001 190.0999999999999 938.8000000000001 181.39999999999992 C 936.5000000000001 173.49999999999991 928.6 160.89999999999992 922.1 154.69999999999993 L 917.9 150.69999999999993 L 920.5 156.79999999999993 C 926.9 171.59999999999994 928.3 197.0999999999999 923.6 211.89999999999992 C 920.7 221.0999999999999 915.5 230.69999999999993 911.8000000000001 233.5999999999999 C 909.7 235.2999999999999 909.6 235.1999999999999 911.0000000000001 233.49999999999991 C 912.6000000000001 231.49999999999991 916.1000000000001 223.0999999999999 914.9000000000001 224.29999999999993 C 914.5000000000001 224.69999999999993 911.3000000000001 229.39999999999992 907.7 234.89999999999992 C 898.8000000000001 248.49999999999991 886.7 262.2999999999999 874.7 272.5999999999999 C 869.2 277.2999999999999 864.3000000000001 281.19999999999993 863.8000000000001 281.19999999999993 C 863.3000000000001 281.19999999999993 861.9000000000001 276.79999999999995 860.6 271.3999999999999 C 856.3000000000001 253.0999999999999 847.2 238.19999999999993 834.3000000000001 227.99999999999991 L 828.7 223.5999999999999 L 832.8000000000001 228.89999999999992 C 846.3000000000001 246.49999999999991 851.3000000000001 266.99999999999994 846.1 284.0999999999999 C 844 291.0999999999999 832.4 302.9999999999999 824.1 311.8999999999999 C 817.5 318.8999999999999 814.2 320.2999999999999 818.6 314.19999999999993 C 820.2 311.99999999999994 821 310.19999999999993 820.5 310.19999999999993 C 820 310.19999999999993 815.6 312.8999999999999 810.6 316.19999999999993 C 794.1 327.0999999999999 784.8000000000001 344.3999999999999 782.3000000000001 358.29999999999995 L 781.4000000000001 363.29999999999995 L 786.5000000000001 363.29999999999995 L 786.5000000000001 363.29999999999995 C 789.3000000000001 363.29999999999995 794.7000000000002 363.69999999999993 798.6000000000001 364.09999999999997 L 805.6000000000001 364.9 L 805.6000000000001 361 C 805.6000000000001 355.3 809.4000000000001 345 814.2000000000002 337.4 C 822.8000000000002 323.79999999999995 836.7000000000002 314.4 856.1000000000001 308.9 C 864.1000000000001 306.59999999999997 872.0000000000001 305.9 900.9000000000001 304.9 C 958.1000000000001 302.79999999999995 982.8000000000001 299 1003.7 289 C 1033.3 274.8 1036.7 250.5 1014.6 210.3 C 1011 203.7 1007 196.9 1005.6 195.2 z" stroke-linecap="round" />
</g>
<g transform="matrix(1 0 0 1 834.47 280)"  >
<path style="stroke: none; stroke-width: 1; stroke-dasharray: none; stroke-linecap: butt; stroke-dashoffset: 0; stroke-linejoin: miter; stroke-miterlimit: 4; fill: rgb(96,96,96); fill-rule: nonzero; opacity: 1;" vector-effect="non-scaling-stroke"  transform=" translate(-1028.48, -150.8)" d="M 1031.9 116.8 C 1027.1000000000001 107.3 1015.5000000000001 89.19999999999999 1014.2 89.19999999999999 C 1014 89.19999999999999 1015.8000000000001 93.89999999999999 1018.2 99.6 C 1027.1000000000001 120.1 1028.5 127.89999999999999 1028.6000000000001 157.7 C 1028.7 177.39999999999998 1028.3000000000002 184.89999999999998 1027.0000000000002 186.1 C 1025.7000000000003 187.4 1025.3000000000002 186.7 1025.3000000000002 182.6 L 1025.3000000000002 177.4 L 1020.7000000000002 187 L 1016.1000000000001 196.6 L 1020.1000000000001 204.5 C 1022.3000000000002 208.9 1024.6000000000001 212.4 1025.2 212.4 C 1027.1000000000001 212.4 1038.2 189.5 1040.4 180.9 C 1045.5 161.4 1042.3 137.5 1031.9 116.8 z" stroke-linecap="round" />
</g>
</svg>